PathFileType	4	(X/Y/Z)	Patient4_TMGait_0pt6_02_left_45.trc.trc
DataRate	CameraRate	NumFrames	NumMarkers	Units	OrigDataRate	OrigDataStartFrame	OrigNumFrames
81.871345029240	81.871345029240	6	33	mm	81.871345029240	124	       141
Frame#	Time	Sacral			L.Shoulder			Chest			R.Shoulder			Neck			R.ASIS			L.ASIS			R.Thigh.Superior			R.Thigh.Lateral			R.Thigh.Inferior			R.Patella			L.Thigh.Superior			L.Thigh.Lateral			L.Thigh.Inferior			L.Patella			L.Shank.Superior			L.Shank.Lateral			L.Shank.Inferior			R.Shank.Superior			R.Shank.Lateral			R.Shank.Inferior			R.Heel			R.Midfoot.Superior			R.Midfoot.Lateral			R.Toe			L.Heel			L.Midfoot.Lateral			L.Midfoot.Superior			L.Toe			L.Elbow			L.Wrist			R.Elbow			R.Wrist			
		X1	Y1	Z1	X2	Y2	Z2	X3	Y3	Z3	X4	Y4	Z4	X5	Y5	Z5	X6	Y6	Z6	X7	Y7	Z7	X8	Y8	Z8	X9	Y9	Z9	X10	Y10	Z10	X11	Y11	Z11	X12	Y12	Z12	X13	Y13	Z13	X14	Y14	Z14	X15	Y15	Z15	X16	Y16	Z16	X17	Y17	Z17	X18	Y18	Z18	X19	Y19	Z19	X20	Y20	Z20	X21	Y21	Z21	X22	Y22	Z22	X23	Y23	Z23	X24	Y24	Z24	X25	Y25	Z25	X26	Y26	Z26	X27	Y27	Z27	X28	Y28	Z28	X29	Y29	Z29	X30	Y30	Z30	X31	Y31	Z31	X32	Y32	Z32	X33	Y33	Z33	

124	56.412357142857	832.347573307821	994.470201275346	517.225492905634	981.958301155090	1422.121813563568	320.053172405545	1105.818524615315	1348.339148138055	462.538284640677	1048.784864800196	1423.508772761714	644.832320170124	1000.918701088599	1480.687720206510	471.067629160282	1064.220909527377	929.658358042883	615.827873420674	1029.409605448491	942.855001376031	341.162918741304	1058.252265106353	715.343532786272	586.590067029527	953.824972473287	622.875365730290	651.079649097430	1007.490960153714	557.301316744775	567.350049965896	984.464645576581	471.899182928567	569.948943254495	1109.243023938829	764.854203431117	375.122839340433	1060.268380160014	632.298097108009	302.108875255451	1167.124047899832	578.382348827773	362.081943717323	1194.725411179837	513.632780409561	360.659147911552	1180.586385764404	440.245416147145	352.793793313054	1116.495970448445	306.902647751496	309.888366324700	1208.735047840645	212.843940256194	364.513210085351	942.913660242049	388.365472753840	578.486648096849	857.164152167202	296.938355379759	642.864798390489	877.258902915682	198.133079982221	575.978035615723	720.531600944581	43.963493695209	547.570044535108	893.076352457389	96.530156452927	581.704351513704	804.108448567783	36.702194449079	620.931683252947	1012.637336447250	40.883096876291	609.082757380617	1130.605636042757	37.424186490110	410.159128710425	1201.469051093126	41.622534244101	327.659551862813	1273.802854728185	115.476903138915	347.064374506730	1405.820850841786	83.248671114432	316.890556578875	821.186297287059	1110.378146203303	218.804364207495	763.088222366157	860.646771402811	274.365451338929	1232.786320396462	1148.914873261862	753.391819704333	1416.504686323100	1269.636449099102	632.542325258742	
125	56.424571428571	834.445761082296	993.220276900977	514.985201498652	982.174951280282	1421.134869323102	318.116316154423	1106.318363364406	1347.945920381821	460.670396048458	1048.778819524274	1422.634981485146	643.036780760805	1000.881510008810	1479.764464512482	469.134325511757	1066.307407445438	928.071390796793	613.508374313225	1031.535839696364	941.904713806743	339.133526842582	1059.467881568290	713.596968612125	584.514278805375	954.395565355489	621.601091260599	648.981936020568	1007.925878143335	555.441337082163	565.514717782553	984.066202451882	469.477251739859	568.170154009331	1110.701875999183	762.195243708046	372.572924757007	1058.681116530817	629.908989445307	301.501083799526	1165.391262327790	575.349705499056	361.074940848978	1191.276314755474	510.024011699433	360.547321089592	1177.139393145050	436.822872857160	352.590888948450	1112.159549442162	303.671676651174	310.754937778492	1204.014525288752	209.489748080029	365.574758133256	940.960482538442	386.697863852939	576.998709318989	853.762721669761	296.941107820659	641.919760130418	871.973694248728	197.583694740467	575.448666756327	713.203126958125	44.772558459499	547.832183184014	886.024617504602	96.536740894060	581.709906880193	796.843268485788	36.936361096489	620.975998392037	1005.398783672822	40.449972871416	609.209098527117	1123.329856181361	36.998971177539	412.545929273213	1193.719449975672	39.410469109337	329.404041830620	1268.540607750609	110.546676486690	348.815025282319	1399.547014576399	74.057154537725	317.607296323987	820.804610681542	1109.947077554038	217.163034758843	762.315119165710	860.464842461674	273.828326635613	1233.606010208362	1148.532378593176	751.552088863961	1411.796937211167	1276.636526279674	630.606834799994	
126	56.436785714286	836.373913974074	992.284446174099	512.722794022499	982.594772243980	1420.290655801571	316.071144975456	1106.986230551463	1347.625940062521	458.726988104337	1049.032287744066	1421.943737885917	641.164161889011	1001.061074832737	1479.055803101259	467.100932347200	1068.262325096782	926.623973196120	611.063630747820	1033.507428895435	941.280269476954	336.991544648664	1060.729686436713	712.008685340329	582.311593835420	955.158322972923	620.381628849545	646.726001668619	1008.716021077208	553.682497946824	563.537800230969	984.163843455004	466.980522211992	566.350059215631	1112.233630215501	760.275010454176	369.992559129113	1057.675068147464	628.345327612914	300.622655608132	1164.160340845505	573.254656378668	360.035098234751	1188.337708142178	507.255811820415	360.379740172416	1174.182055195937	434.108709900388	352.253568364686	1108.372939888430	301.300325173747	310.834114625509	1199.327123981200	206.747312412374	366.267679071860	939.309337094814	385.083772298219	575.445315723364	850.574036251016	297.138336748038	640.878245181755	866.866292322043	197.213124417855	574.919693884933	705.904496063132	45.986171181960	548.146811539473	879.107992869049	96.586079446790	581.740914910445	789.620473806409	37.367764563658	621.060024420953	998.190697914328	40.004228479318	609.333513342588	1115.703231423996	36.913506806102	414.149008245586	1185.818324037759	37.745937171446	330.543982090012	1262.916653378007	106.363561581797	350.192682279884	1393.037888035641	65.938768945216	318.291771853480	821.339026821265	1109.115297794259	215.330458491572	762.955861726078	859.694000305618	272.690328609599	1233.824181550411	1147.553941106255	750.057875498326	1406.968868690211	1282.096266988982	629.059920748099	
127	56.449000000000	838.094649600522	991.708638982809	510.468216235795	983.198496289330	1419.647268027529	313.935526613036	1107.801881082005	1347.420239887599	456.715157489063	1049.543266000794	1421.501297695591	639.213808812996	1001.456544446209	1478.615977962096	464.979474391343	1070.029977278043	925.408873258365	608.522475879153	1035.278952189035	941.027934923802	334.739327440775	1062.028867736935	710.660448657634	579.990822306043	956.157389536431	619.263822747458	644.341915982818	1009.916392339350	552.091989966722	561.437404631250	984.857289302728	464.456029413448	564.548791183375	1113.816487185893	759.177690349258	367.441756190795	1057.291486640158	627.651269514468	299.444363305064	1163.427826417194	572.096723362994	358.901474885443	1185.942947532590	505.362579854247	360.048939680148	1171.738662341132	432.137751022561	351.732229799829	1105.157425584090	299.806263676763	310.135140222170	1194.736803693379	204.667107576288	366.577467613187	938.045555585371	383.573289777831	573.868660860542	847.663776634613	297.601125355013	639.757354025864	862.010993742502	197.087215051319	574.408055087038	698.680426535039	47.733437713962	548.502163971433	872.385895459272	96.694763116474	581.804216379774	782.464263668071	38.073999761453	621.177961488054	991.012373614216	39.558657651939	609.446260223199	1107.995880060307	37.055539188058	415.021206579229	1178.006278182245	36.602209310318	331.119549135976	1257.008899327203	103.090903656097	351.148694426361	1386.418048837542	59.348257110597	318.879444409738	822.805283481539	1107.924294539005	213.307205083450	765.033961979303	858.367391416958	270.938450606984	1233.384914274020	1146.015645399701	748.876688588509	1402.149939930880	1286.010248516430	627.874605050069	
128	56.461214285714	839.591792652634	991.517810909847	508.235350959311	983.951377096732	1419.254287477912	311.728674628003	1108.731725829203	1347.374044466868	454.643312876822	1050.281299787583	1421.366693834570	637.185349308292	1002.044811749229	1478.485805517771	462.781404201668	1071.569596733595	924.510142034221	605.917038419476	1036.831009651684	941.171883491361	332.381052849345	1063.377499356472	709.628147982430	577.572133974939	957.453499385171	618.291704300644	641.872904515023	1011.601639338724	550.731985514422	559.251259373610	986.258809520034	461.956782437615	562.844361818089	1115.422650730316	758.911711579160	364.966766945829	1057.483229026799	627.782800637040	297.982478345203	1163.116131220966	571.771634220462	357.619852436806	1184.044545001861	504.275213554397	359.476765883761	1169.741122652613	430.860443248216	351.010504705806	1102.402600709473	299.121528698625	308.783438417907	1190.220676664231	203.222533222417	366.540174690795	937.277582336977	382.214571434444	572.323719484195	845.119149731784	298.403924035314	638.582016359673	857.501285727555	197.275258816159	573.934843774310	691.598045195530	50.156625329818	548.876121538517	865.928562380987	96.886807516674	581.905302990732	775.409849681753	39.147653429198	621.315797685048	983.860552102618	39.126006867717	609.537094761063	1100.365037514341	37.318823045783	415.285996542577	1170.396985226912	35.909023775616	331.225544160645	1250.844564964056	100.768380958021	351.690829847258	1379.733834963873	54.489029013500	319.322651557716	825.208693578098	1106.430335266553	211.091115483223	768.577860734061	856.539876566690	268.566200365291	1232.204527599931	1143.984564649444	747.958080024852	1397.443046862731	1288.374542038127	627.014933054712	
129	56.473428571429	840.867424722380	991.711528476527	506.018227697307	984.808148906147	1419.145422124805	309.467681556259	1109.730944012427	1347.529827617233	452.521250829055	1051.186412143307	1421.582486766949	635.079245953521	1002.780851701711	1478.685953602297	460.515811369904	1072.857326177571	923.991217062369	603.282067827301	1038.173614481973	941.708916593647	329.927001041191	1064.811596278901	708.973096228328	575.091758315300	959.121112388420	617.500163776327	639.373531588574	1013.865208355008	549.653294444125	557.037172647105	988.486961154746	459.537770918419	561.324903959894	1117.012214914200	759.391717755245	362.588369225550	1058.093893377707	628.601786276321	296.296833967287	1163.068035823779	572.081053762484	356.157293260219	1182.511481951902	503.838933910738	358.638928092905	1168.038695564867	430.158409354307	350.109855118990	1099.907113899754	299.103931126064	306.988975421734	1185.702635315494	202.323723040925	366.231955452827	937.134350613914	381.049700405395	570.872380265419	843.049104478017	299.618015507650	637.380544654131	853.447652070053	197.846114696693	573.521134035322	684.749415416989	53.406942395763	549.235059099503	859.814620087558	97.196607062774	582.045733523868	768.505664595277	40.697742584878	621.451067237414	976.730344724721	38.716653150394	609.596602454528	1092.877139012752	37.615367259080	415.104116989042	1163.010271943276	35.569725648356	330.986912152577	1244.432473548128	99.324738342376	351.875730438261	1372.987302990869	51.322181291689	319.601804330261	828.542853856961	1104.699459298560	208.675472078962	773.622389486722	854.284591259286	265.573404528136	1230.177620433602	1141.554248477798	747.239475734397	1392.918006640476	1289.179989868698	626.437701325751	
